<svg xmlns="http://www.w3.org/2000/svg" xmlns:xlink="http://www.w3.org/1999/xlink" width="189.69" height="165.437" viewBox="0 0 189.69 165.437">
  <defs>
    <linearGradient id="linear-gradient" x1="0.232" y1="0.573" x2="0.518" y2="0.433" gradientUnits="objectBoundingBox">
      <stop offset="0" stop-color="#fff"/>
      <stop offset="1" stop-color="#ffeded"/>
    </linearGradient>
  </defs>
  <g id="logo" transform="translate(0 -0.563)">
    <path id="Combined_Shape" data-name="Combined Shape" d="M189.524,165.437V10.308c0-10.241-13.589-14.377-20.282-5.272L123.715,69.978a12.853,12.853,0,0,1-10.315,5.19H76.295a12.854,12.854,0,0,1-10.456-5.384L19.244,4.583C13.235-3.825,0,.436,0,10.778V165.437H38.268V144.8a46.967,46.967,0,0,1,38.876,20.637H112.38A46.967,46.967,0,0,1,151.256,144.8v20.637Z" transform="translate(0 0.563)" fill="url(#linear-gradient)"/>
    <path id="Combined_Shape-2" data-name="Combined Shape" d="M127.915,165.435V10.27c-.028-9.527-11.838-13.752-18.848-6.885h0L89.746,30.777,63.832,67.515,62.461,69.47h0a10.208,10.208,0,0,1-1.608,2.265l-2.417,3.431L33.049,111.16S18.65,131.336,3.6,140.475a7.512,7.512,0,0,0-.187,12.7,47.131,47.131,0,0,1,7.443,6.411c.028.034.062.062.09.1.067.068.129.141.2.209.006.006.011.017.022.023a47.6,47.6,0,0,1,4.471,5.52H50.746q.369-.532.752-1.053c.1-.135.2-.265.292-.4A47.028,47.028,0,0,1,89.645,144.8v.169h.1v20.467Z" transform="translate(61.776 0.565)" fill="#fff"/>
  </g>
</svg>
